<svg width="128" height="128" viewBox="0 0 128 128" fill="none" xmlns="http://www.w3.org/2000/svg">
<g clip-path="url(#clip0_102_103)">
<path d="M46.9912 30C58.0011 30 67.8276 34.6118 74.2705 41.8291C63.1711 44.3058 54.0881 52.1272 49.8662 62.4521C47.2581 61.5063 44.4436 60.9902 41.5088 60.9902C27.973 60.9903 17.0001 71.9617 17 85.4951C17 88.4818 17.5352 91.3435 18.5137 93.9902C9.34308 93.7196 2 86.8654 2 78.4482C2.00015 72.179 6.07398 66.7763 11.9424 64.3154C11.8824 63.5508 11.8525 62.7785 11.8525 62C11.8525 44.3269 27.5845 30 46.9912 30Z" fill="#C4C4C4"/>
<path d="M81.8193 39.5C101.705 39.5 117.825 55.6175 117.825 75.5C117.825 76.034 117.811 76.5652 117.788 77.0938C123.562 80.1604 127.5 86.2348 127.5 93.2334C127.5 103.322 119.32 111.5 109.23 111.5H41.5088C27.1448 111.5 15.5 99.8573 15.5 85.4951L15.5088 84.8242C15.8648 70.7722 27.3691 59.4903 41.5088 59.4902C44.1236 59.4902 46.6505 59.8773 49.0342 60.5967C54.7012 48.1538 67.2481 39.5001 81.8193 39.5Z" fill="white" stroke="black" stroke-width="3"/>
</g>
<defs>
<clipPath id="clip0_102_103">
<rect width="128" height="128" fill="white"/>
</clipPath>
</defs>
</svg>
